861 1600 120
0 0 4
0.0499687695191 0 1
0.0997506234414 0 1
0.149160969546 0 1
0.19801980198 0 1
0.246153846154 0 1
0.293398533007 0 1
0.339599757429 0 1
0.384615384615 0 1
0.428316478287 0 1
0.470588235294 0 1
0.511330621732 0 1
0.550458715596 0 1
0.587902769927 0 1
0.623608017817 0 1
0.657534246575 0 1
0.689655172414 0 1
0.71995764955 0 1
0.748440748441 0 1
0.775114737379 0 1
0.8 0 1
0.823125918667 0 1
0.84452975048 0 1
0.864255519023 0 1
0.882352941176 0 1
0.898876404494 0 1
0.91388400703 0 1
0.927436668098 0 1
0.939597315436 0 1
0.950430151577 0 1
0.96 0 1
0.968371729793 0 1
0.975609756098 0 1
0.981777612495 0 1
0.986937590711 0 1
0.991150442478 0 1
0.994475138122 0 1
0.996968676322 0 1
0.998685939553 0 1
0.999679589875 0 1
1 0 2
0 0.00392699081699 4
0.0499687695191 0.00392699081699 0
0.0997506234414 0.00392699081699 0
0.149160969546 0.00392699081699 0
0.19801980198 0.00392699081699 0
0.246153846154 0.00392699081699 0
0.293398533007 0.00392699081699 0
0.339599757429 0.00392699081699 0
0.384615384615 0.00392699081699 0
0.428316478287 0.00392699081699 0
0.470588235294 0.00392699081699 0
0.511330621732 0.00392699081699 0
0.550458715596 0.00392699081699 0
0.587902769927 0.00392699081699 0
0.623608017817 0.00392699081699 0
0.657534246575 0.00392699081699 0
0.689655172414 0.00392699081699 0
0.71995764955 0.00392699081699 0
0.748440748441 0.00392699081699 0
0.775114737379 0.00392699081699 0
0.8 0.00392699081699 0
0.823125918667 0.00392699081699 0
0.84452975048 0.00392699081699 0
0.864255519023 0.00392699081699 0
0.882352941176 0.00392699081699 0
0.898876404494 0.00392699081699 0
0.91388400703 0.00392699081699 0
0.927436668098 0.00392699081699 0
0.939597315436 0.00392699081699 0
0.950430151577 0.00392699081699 0
0.96 0.00392699081699 0
0.968371729793 0.00392699081699 0
0.975609756098 0.00392699081699 0
0.981777612495 0.00392699081699 0
0.986937590711 0.00392699081699 0
0.991150442478 0.00392699081699 0
0.994475138122 0.00392699081699 0
0.996968676322 0.00392699081699 0
0.998685939553 0.00392699081699 0
0.999679589875 0.00392699081699 0
1 0.00392699081699 2
0 0.0157079632679 4
0.0499687695191 0.0157079632679 0
0.0997506234414 0.0157079632679 0
0.149160969546 0.0157079632679 0
0.19801980198 0.0157079632679 0
0.246153846154 0.0157079632679 0
0.293398533007 0.0157079632679 0
0.339599757429 0.0157079632679 0
0.384615384615 0.0157079632679 0
0.428316478287 0.0157079632679 0
0.470588235294 0.0157079632679 0
0.511330621732 0.0157079632679 0
0.550458715596 0.0157079632679 0
0.587902769927 0.0157079632679 0
0.623608017817 0.0157079632679 0
0.657534246575 0.0157079632679 0
0.689655172414 0.0157079632679 0
0.71995764955 0.0157079632679 0
0.748440748441 0.0157079632679 0
0.775114737379 0.0157079632679 0
0.8 0.0157079632679 0
0.823125918667 0.0157079632679 0
0.84452975048 0.0157079632679 0
0.864255519023 0.0157079632679 0
0.882352941176 0.0157079632679 0
0.898876404494 0.0157079632679 0
0.91388400703 0.0157079632679 0
0.927436668098 0.0157079632679 0
0.939597315436 0.0157079632679 0
0.950430151577 0.0157079632679 0
0.96 0.0157079632679 0
0.968371729793 0.0157079632679 0
0.975609756098 0.0157079632679 0
0.981777612495 0.0157079632679 0
0.986937590711 0.0157079632679 0
0.991150442478 0.0157079632679 0
0.994475138122 0.0157079632679 0
0.996968676322 0.0157079632679 0
0.998685939553 0.0157079632679 0
0.999679589875 0.0157079632679 0
1 0.0157079632679 2
0 0.0353429173529 4
0.0499687695191 0.0353429173529 0
0.0997506234414 0.0353429173529 0
0.149160969546 0.0353429173529 0
0.19801980198 0.0353429173529 0
0.246153846154 0.0353429173529 0
0.293398533007 0.0353429173529 0
0.339599757429 0.0353429173529 0
0.384615384615 0.0353429173529 0
0.428316478287 0.0353429173529 0
0.470588235294 0.0353429173529 0
0.511330621732 0.0353429173529 0
0.550458715596 0.0353429173529 0
0.587902769927 0.0353429173529 0
0.623608017817 0.0353429173529 0
0.657534246575 0.0353429173529 0
0.689655172414 0.0353429173529 0
0.71995764955 0.0353429173529 0
0.748440748441 0.0353429173529 0
0.775114737379 0.0353429173529 0
0.8 0.0353429173529 0
0.823125918667 0.0353429173529 0
0.84452975048 0.0353429173529 0
0.864255519023 0.0353429173529 0
0.882352941176 0.0353429173529 0
0.898876404494 0.0353429173529 0
0.91388400703 0.0353429173529 0
0.927436668098 0.0353429173529 0
0.939597315436 0.0353429173529 0
0.950430151577 0.0353429173529 0
0.96 0.0353429173529 0
0.968371729793 0.0353429173529 0
0.975609756098 0.0353429173529 0
0.981777612495 0.0353429173529 0
0.986937590711 0.0353429173529 0
0.991150442478 0.0353429173529 0
0.994475138122 0.0353429173529 0
0.996968676322 0.0353429173529 0
0.998685939553 0.0353429173529 0
0.999679589875 0.0353429173529 0
1 0.0353429173529 2
0 0.0628318530718 4
0.0499687695191 0.0628318530718 0
0.0997506234414 0.0628318530718 0
0.149160969546 0.0628318530718 0
0.19801980198 0.0628318530718 0
0.246153846154 0.0628318530718 0
0.293398533007 0.0628318530718 0
0.339599757429 0.0628318530718 0
0.384615384615 0.0628318530718 0
0.428316478287 0.0628318530718 0
0.470588235294 0.0628318530718 0
0.511330621732 0.0628318530718 0
0.550458715596 0.0628318530718 0
0.587902769927 0.0628318530718 0
0.623608017817 0.0628318530718 0
0.657534246575 0.0628318530718 0
0.689655172414 0.0628318530718 0
0.71995764955 0.0628318530718 0
0.748440748441 0.0628318530718 0
0.775114737379 0.0628318530718 0
0.8 0.0628318530718 0
0.823125918667 0.0628318530718 0
0.84452975048 0.0628318530718 0
0.864255519023 0.0628318530718 0
0.882352941176 0.0628318530718 0
0.898876404494 0.0628318530718 0
0.91388400703 0.0628318530718 0
0.927436668098 0.0628318530718 0
0.939597315436 0.0628318530718 0
0.950430151577 0.0628318530718 0
0.96 0.0628318530718 0
0.968371729793 0.0628318530718 0
0.975609756098 0.0628318530718 0
0.981777612495 0.0628318530718 0
0.986937590711 0.0628318530718 0
0.991150442478 0.0628318530718 0
0.994475138122 0.0628318530718 0
0.996968676322 0.0628318530718 0
0.998685939553 0.0628318530718 0
0.999679589875 0.0628318530718 0
1 0.0628318530718 2
0 0.0981747704247 4
0.0499687695191 0.0981747704247 0
0.0997506234414 0.0981747704247 0
0.149160969546 0.0981747704247 0
0.19801980198 0.0981747704247 0
0.246153846154 0.0981747704247 0
0.293398533007 0.0981747704247 0
0.339599757429 0.0981747704247 0
0.384615384615 0.0981747704247 0
0.428316478287 0.0981747704247 0
0.470588235294 0.0981747704247 0
0.511330621732 0.0981747704247 0
0.550458715596 0.0981747704247 0
0.587902769927 0.0981747704247 0
0.623608017817 0.0981747704247 0
0.657534246575 0.0981747704247 0
0.689655172414 0.0981747704247 0
0.71995764955 0.0981747704247 0
0.748440748441 0.0981747704247 0
0.775114737379 0.0981747704247 0
0.8 0.0981747704247 0
0.823125918667 0.0981747704247 0
0.84452975048 0.0981747704247 0
0.864255519023 0.0981747704247 0
0.882352941176 0.0981747704247 0
0.898876404494 0.0981747704247 0
0.91388400703 0.0981747704247 0
0.927436668098 0.0981747704247 0
0.939597315436 0.0981747704247 0
0.950430151577 0.0981747704247 0
0.96 0.0981747704247 0
0.968371729793 0.0981747704247 0
0.975609756098 0.0981747704247 0
0.981777612495 0.0981747704247 0
0.986937590711 0.0981747704247 0
0.991150442478 0.0981747704247 0
0.994475138122 0.0981747704247 0
0.996968676322 0.0981747704247 0
0.998685939553 0.0981747704247 0
0.999679589875 0.0981747704247 0
1 0.0981747704247 2
0 0.141371669412 4
0.0499687695191 0.141371669412 0
0.0997506234414 0.141371669412 0
0.149160969546 0.141371669412 0
0.19801980198 0.141371669412 0
0.246153846154 0.141371669412 0
0.293398533007 0.141371669412 0
0.339599757429 0.141371669412 0
0.384615384615 0.141371669412 0
0.428316478287 0.141371669412 0
0.470588235294 0.141371669412 0
0.511330621732 0.141371669412 0
0.550458715596 0.141371669412 0
0.587902769927 0.141371669412 0
0.623608017817 0.141371669412 0
0.657534246575 0.141371669412 0
0.689655172414 0.141371669412 0
0.71995764955 0.141371669412 0
0.748440748441 0.141371669412 0
0.775114737379 0.141371669412 0
0.8 0.141371669412 0
0.823125918667 0.141371669412 0
0.84452975048 0.141371669412 0
0.864255519023 0.141371669412 0
0.882352941176 0.141371669412 0
0.898876404494 0.141371669412 0
0.91388400703 0.141371669412 0
0.927436668098 0.141371669412 0
0.939597315436 0.141371669412 0
0.950430151577 0.141371669412 0
0.96 0.141371669412 0
0.968371729793 0.141371669412 0
0.975609756098 0.141371669412 0
0.981777612495 0.141371669412 0
0.986937590711 0.141371669412 0
0.991150442478 0.141371669412 0
0.994475138122 0.141371669412 0
0.996968676322 0.141371669412 0
0.998685939553 0.141371669412 0
0.999679589875 0.141371669412 0
1 0.141371669412 2
0 0.192422550032 4
0.0499687695191 0.192422550032 0
0.0997506234414 0.192422550032 0
0.149160969546 0.192422550032 0
0.19801980198 0.192422550032 0
0.246153846154 0.192422550032 0
0.293398533007 0.192422550032 0
0.339599757429 0.192422550032 0
0.384615384615 0.192422550032 0
0.428316478287 0.192422550032 0
0.470588235294 0.192422550032 0
0.511330621732 0.192422550032 0
0.550458715596 0.192422550032 0
0.587902769927 0.192422550032 0
0.623608017817 0.192422550032 0
0.657534246575 0.192422550032 0
0.689655172414 0.192422550032 0
0.71995764955 0.192422550032 0
0.748440748441 0.192422550032 0
0.775114737379 0.192422550032 0
0.8 0.192422550032 0
0.823125918667 0.192422550032 0
0.84452975048 0.192422550032 0
0.864255519023 0.192422550032 0
0.882352941176 0.192422550032 0
0.898876404494 0.192422550032 0
0.91388400703 0.192422550032 0
0.927436668098 0.192422550032 0
0.939597315436 0.192422550032 0
0.950430151577 0.192422550032 0
0.96 0.192422550032 0
0.968371729793 0.192422550032 0
0.975609756098 0.192422550032 0
0.981777612495 0.192422550032 0
0.986937590711 0.192422550032 0
0.991150442478 0.192422550032 0
0.994475138122 0.192422550032 0
0.996968676322 0.192422550032 0
0.998685939553 0.192422550032 0
0.999679589875 0.192422550032 0
1 0.192422550032 2
0 0.251327412287 4
0.0499687695191 0.251327412287 0
0.0997506234414 0.251327412287 0
0.149160969546 0.251327412287 0
0.19801980198 0.251327412287 0
0.246153846154 0.251327412287 0
0.293398533007 0.251327412287 0
0.339599757429 0.251327412287 0
0.384615384615 0.251327412287 0
0.428316478287 0.251327412287 0
0.470588235294 0.251327412287 0
0.511330621732 0.251327412287 0
0.550458715596 0.251327412287 0
0.587902769927 0.251327412287 0
0.623608017817 0.251327412287 0
0.657534246575 0.251327412287 0
0.689655172414 0.251327412287 0
0.71995764955 0.251327412287 0
0.748440748441 0.251327412287 0
0.775114737379 0.251327412287 0
0.8 0.251327412287 0
0.823125918667 0.251327412287 0
0.84452975048 0.251327412287 0
0.864255519023 0.251327412287 0
0.882352941176 0.251327412287 0
0.898876404494 0.251327412287 0
0.91388400703 0.251327412287 0
0.927436668098 0.251327412287 0
0.939597315436 0.251327412287 0
0.950430151577 0.251327412287 0
0.96 0.251327412287 0
0.968371729793 0.251327412287 0
0.975609756098 0.251327412287 0
0.981777612495 0.251327412287 0
0.986937590711 0.251327412287 0
0.991150442478 0.251327412287 0
0.994475138122 0.251327412287 0
0.996968676322 0.251327412287 0
0.998685939553 0.251327412287 0
0.999679589875 0.251327412287 0
1 0.251327412287 2
0 0.318086256176 4
0.0499687695191 0.318086256176 0
0.0997506234414 0.318086256176 0
0.149160969546 0.318086256176 0
0.19801980198 0.318086256176 0
0.246153846154 0.318086256176 0
0.293398533007 0.318086256176 0
0.339599757429 0.318086256176 0
0.384615384615 0.318086256176 0
0.428316478287 0.318086256176 0
0.470588235294 0.318086256176 0
0.511330621732 0.318086256176 0
0.550458715596 0.318086256176 0
0.587902769927 0.318086256176 0
0.623608017817 0.318086256176 0
0.657534246575 0.318086256176 0
0.689655172414 0.318086256176 0
0.71995764955 0.318086256176 0
0.748440748441 0.318086256176 0
0.775114737379 0.318086256176 0
0.8 0.318086256176 0
0.823125918667 0.318086256176 0
0.84452975048 0.318086256176 0
0.864255519023 0.318086256176 0
0.882352941176 0.318086256176 0
0.898876404494 0.318086256176 0
0.91388400703 0.318086256176 0
0.927436668098 0.318086256176 0
0.939597315436 0.318086256176 0
0.950430151577 0.318086256176 0
0.96 0.318086256176 0
0.968371729793 0.318086256176 0
0.975609756098 0.318086256176 0
0.981777612495 0.318086256176 0
0.986937590711 0.318086256176 0
0.991150442478 0.318086256176 0
0.994475138122 0.318086256176 0
0.996968676322 0.318086256176 0
0.998685939553 0.318086256176 0
0.999679589875 0.318086256176 0
1 0.318086256176 2
0 0.392699081699 4
0.0499687695191 0.392699081699 0
0.0997506234414 0.392699081699 0
0.149160969546 0.392699081699 0
0.19801980198 0.392699081699 0
0.246153846154 0.392699081699 0
0.293398533007 0.392699081699 0
0.339599757429 0.392699081699 0
0.384615384615 0.392699081699 0
0.428316478287 0.392699081699 0
0.470588235294 0.392699081699 0
0.511330621732 0.392699081699 0
0.550458715596 0.392699081699 0
0.587902769927 0.392699081699 0
0.623608017817 0.392699081699 0
0.657534246575 0.392699081699 0
0.689655172414 0.392699081699 0
0.71995764955 0.392699081699 0
0.748440748441 0.392699081699 0
0.775114737379 0.392699081699 0
0.8 0.392699081699 0
0.823125918667 0.392699081699 0
0.84452975048 0.392699081699 0
0.864255519023 0.392699081699 0
0.882352941176 0.392699081699 0
0.898876404494 0.392699081699 0
0.91388400703 0.392699081699 0
0.927436668098 0.392699081699 0
0.939597315436 0.392699081699 0
0.950430151577 0.392699081699 0
0.96 0.392699081699 0
0.968371729793 0.392699081699 0
0.975609756098 0.392699081699 0
0.981777612495 0.392699081699 0
0.986937590711 0.392699081699 0
0.991150442478 0.392699081699 0
0.994475138122 0.392699081699 0
0.996968676322 0.392699081699 0
0.998685939553 0.392699081699 0
0.999679589875 0.392699081699 0
1 0.392699081699 2
0 0.475165888855 4
0.0499687695191 0.475165888855 0
0.0997506234414 0.475165888855 0
0.149160969546 0.475165888855 0
0.19801980198 0.475165888855 0
0.246153846154 0.475165888855 0
0.293398533007 0.475165888855 0
0.339599757429 0.475165888855 0
0.384615384615 0.475165888855 0
0.428316478287 0.475165888855 0
0.470588235294 0.475165888855 0
0.511330621732 0.475165888855 0
0.550458715596 0.475165888855 0
0.587902769927 0.475165888855 0
0.623608017817 0.475165888855 0
0.657534246575 0.475165888855 0
0.689655172414 0.475165888855 0
0.71995764955 0.475165888855 0
0.748440748441 0.475165888855 0
0.775114737379 0.475165888855 0
0.8 0.475165888855 0
0.823125918667 0.475165888855 0
0.84452975048 0.475165888855 0
0.864255519023 0.475165888855 0
0.882352941176 0.475165888855 0
0.898876404494 0.475165888855 0
0.91388400703 0.475165888855 0
0.927436668098 0.475165888855 0
0.939597315436 0.475165888855 0
0.950430151577 0.475165888855 0
0.96 0.475165888855 0
0.968371729793 0.475165888855 0
0.975609756098 0.475165888855 0
0.981777612495 0.475165888855 0
0.986937590711 0.475165888855 0
0.991150442478 0.475165888855 0
0.994475138122 0.475165888855 0
0.996968676322 0.475165888855 0
0.998685939553 0.475165888855 0
0.999679589875 0.475165888855 0
1 0.475165888855 2
0 0.565486677646 4
0.0499687695191 0.565486677646 0
0.0997506234414 0.565486677646 0
0.149160969546 0.565486677646 0
0.19801980198 0.565486677646 0
0.246153846154 0.565486677646 0
0.293398533007 0.565486677646 0
0.339599757429 0.565486677646 0
0.384615384615 0.565486677646 0
0.428316478287 0.565486677646 0
0.470588235294 0.565486677646 0
0.511330621732 0.565486677646 0
0.550458715596 0.565486677646 0
0.587902769927 0.565486677646 0
0.623608017817 0.565486677646 0
0.657534246575 0.565486677646 0
0.689655172414 0.565486677646 0
0.71995764955 0.565486677646 0
0.748440748441 0.565486677646 0
0.775114737379 0.565486677646 0
0.8 0.565486677646 0
0.823125918667 0.565486677646 0
0.84452975048 0.565486677646 0
0.864255519023 0.565486677646 0
0.882352941176 0.565486677646 0
0.898876404494 0.565486677646 0
0.91388400703 0.565486677646 0
0.927436668098 0.565486677646 0
0.939597315436 0.565486677646 0
0.950430151577 0.565486677646 0
0.96 0.565486677646 0
0.968371729793 0.565486677646 0
0.975609756098 0.565486677646 0
0.981777612495 0.565486677646 0
0.986937590711 0.565486677646 0
0.991150442478 0.565486677646 0
0.994475138122 0.565486677646 0
0.996968676322 0.565486677646 0
0.998685939553 0.565486677646 0
0.999679589875 0.565486677646 0
1 0.565486677646 2
0 0.663661448071 4
0.0499687695191 0.663661448071 0
0.0997506234414 0.663661448071 0
0.149160969546 0.663661448071 0
0.19801980198 0.663661448071 0
0.246153846154 0.663661448071 0
0.293398533007 0.663661448071 0
0.339599757429 0.663661448071 0
0.384615384615 0.663661448071 0
0.428316478287 0.663661448071 0
0.470588235294 0.663661448071 0
0.511330621732 0.663661448071 0
0.550458715596 0.663661448071 0
0.587902769927 0.663661448071 0
0.623608017817 0.663661448071 0
0.657534246575 0.663661448071 0
0.689655172414 0.663661448071 0
0.71995764955 0.663661448071 0
0.748440748441 0.663661448071 0
0.775114737379 0.663661448071 0
0.8 0.663661448071 0
0.823125918667 0.663661448071 0
0.84452975048 0.663661448071 0
0.864255519023 0.663661448071 0
0.882352941176 0.663661448071 0
0.898876404494 0.663661448071 0
0.91388400703 0.663661448071 0
0.927436668098 0.663661448071 0
0.939597315436 0.663661448071 0
0.950430151577 0.663661448071 0
0.96 0.663661448071 0
0.968371729793 0.663661448071 0
0.975609756098 0.663661448071 0
0.981777612495 0.663661448071 0
0.986937590711 0.663661448071 0
0.991150442478 0.663661448071 0
0.994475138122 0.663661448071 0
0.996968676322 0.663661448071 0
0.998685939553 0.663661448071 0
0.999679589875 0.663661448071 0
1 0.663661448071 2
0 0.769690200129 4
0.0499687695191 0.769690200129 0
0.0997506234414 0.769690200129 0
0.149160969546 0.769690200129 0
0.19801980198 0.769690200129 0
0.246153846154 0.769690200129 0
0.293398533007 0.769690200129 0
0.339599757429 0.769690200129 0
0.384615384615 0.769690200129 0
0.428316478287 0.769690200129 0
0.470588235294 0.769690200129 0
0.511330621732 0.769690200129 0
0.550458715596 0.769690200129 0
0.587902769927 0.769690200129 0
0.623608017817 0.769690200129 0
0.657534246575 0.769690200129 0
0.689655172414 0.769690200129 0
0.71995764955 0.769690200129 0
0.748440748441 0.769690200129 0
0.775114737379 0.769690200129 0
0.8 0.769690200129 0
0.823125918667 0.769690200129 0
0.84452975048 0.769690200129 0
0.864255519023 0.769690200129 0
0.882352941176 0.769690200129 0
0.898876404494 0.769690200129 0
0.91388400703 0.769690200129 0
0.927436668098 0.769690200129 0
0.939597315436 0.769690200129 0
0.950430151577 0.769690200129 0
0.96 0.769690200129 0
0.968371729793 0.769690200129 0
0.975609756098 0.769690200129 0
0.981777612495 0.769690200129 0
0.986937590711 0.769690200129 0
0.991150442478 0.769690200129 0
0.994475138122 0.769690200129 0
0.996968676322 0.769690200129 0
0.998685939553 0.769690200129 0
0.999679589875 0.769690200129 0
1 0.769690200129 2
0 0.883572933822 4
0.0499687695191 0.883572933822 0
0.0997506234414 0.883572933822 0
0.149160969546 0.883572933822 0
0.19801980198 0.883572933822 0
0.246153846154 0.883572933822 0
0.293398533007 0.883572933822 0
0.339599757429 0.883572933822 0
0.384615384615 0.883572933822 0
0.428316478287 0.883572933822 0
0.470588235294 0.883572933822 0
0.511330621732 0.883572933822 0
0.550458715596 0.883572933822 0
0.587902769927 0.883572933822 0
0.623608017817 0.883572933822 0
0.657534246575 0.883572933822 0
0.689655172414 0.883572933822 0
0.71995764955 0.883572933822 0
0.748440748441 0.883572933822 0
0.775114737379 0.883572933822 0
0.8 0.883572933822 0
0.823125918667 0.883572933822 0
0.84452975048 0.883572933822 0
0.864255519023 0.883572933822 0
0.882352941176 0.883572933822 0
0.898876404494 0.883572933822 0
0.91388400703 0.883572933822 0
0.927436668098 0.883572933822 0
0.939597315436 0.883572933822 0
0.950430151577 0.883572933822 0
0.96 0.883572933822 0
0.968371729793 0.883572933822 0
0.975609756098 0.883572933822 0
0.981777612495 0.883572933822 0
0.986937590711 0.883572933822 0
0.991150442478 0.883572933822 0
0.994475138122 0.883572933822 0
0.996968676322 0.883572933822 0
0.998685939553 0.883572933822 0
0.999679589875 0.883572933822 0
1 0.883572933822 2
0 1.00530964915 4
0.0499687695191 1.00530964915 0
0.0997506234414 1.00530964915 0
0.149160969546 1.00530964915 0
0.19801980198 1.00530964915 0
0.246153846154 1.00530964915 0
0.293398533007 1.00530964915 0
0.339599757429 1.00530964915 0
0.384615384615 1.00530964915 0
0.428316478287 1.00530964915 0
0.470588235294 1.00530964915 0
0.511330621732 1.00530964915 0
0.550458715596 1.00530964915 0
0.587902769927 1.00530964915 0
0.623608017817 1.00530964915 0
0.657534246575 1.00530964915 0
0.689655172414 1.00530964915 0
0.71995764955 1.00530964915 0
0.748440748441 1.00530964915 0
0.775114737379 1.00530964915 0
0.8 1.00530964915 0
0.823125918667 1.00530964915 0
0.84452975048 1.00530964915 0
0.864255519023 1.00530964915 0
0.882352941176 1.00530964915 0
0.898876404494 1.00530964915 0
0.91388400703 1.00530964915 0
0.927436668098 1.00530964915 0
0.939597315436 1.00530964915 0
0.950430151577 1.00530964915 0
0.96 1.00530964915 0
0.968371729793 1.00530964915 0
0.975609756098 1.00530964915 0
0.981777612495 1.00530964915 0
0.986937590711 1.00530964915 0
0.991150442478 1.00530964915 0
0.994475138122 1.00530964915 0
0.996968676322 1.00530964915 0
0.998685939553 1.00530964915 0
0.999679589875 1.00530964915 0
1 1.00530964915 2
0 1.13490034611 4
0.0499687695191 1.13490034611 0
0.0997506234414 1.13490034611 0
0.149160969546 1.13490034611 0
0.19801980198 1.13490034611 0
0.246153846154 1.13490034611 0
0.293398533007 1.13490034611 0
0.339599757429 1.13490034611 0
0.384615384615 1.13490034611 0
0.428316478287 1.13490034611 0
0.470588235294 1.13490034611 0
0.511330621732 1.13490034611 0
0.550458715596 1.13490034611 0
0.587902769927 1.13490034611 0
0.623608017817 1.13490034611 0
0.657534246575 1.13490034611 0
0.689655172414 1.13490034611 0
0.71995764955 1.13490034611 0
0.748440748441 1.13490034611 0
0.775114737379 1.13490034611 0
0.8 1.13490034611 0
0.823125918667 1.13490034611 0
0.84452975048 1.13490034611 0
0.864255519023 1.13490034611 0
0.882352941176 1.13490034611 0
0.898876404494 1.13490034611 0
0.91388400703 1.13490034611 0
0.927436668098 1.13490034611 0
0.939597315436 1.13490034611 0
0.950430151577 1.13490034611 0
0.96 1.13490034611 0
0.968371729793 1.13490034611 0
0.975609756098 1.13490034611 0
0.981777612495 1.13490034611 0
0.986937590711 1.13490034611 0
0.991150442478 1.13490034611 0
0.994475138122 1.13490034611 0
0.996968676322 1.13490034611 0
0.998685939553 1.13490034611 0
0.999679589875 1.13490034611 0
1 1.13490034611 2
0 1.2723450247 4
0.0499687695191 1.2723450247 0
0.0997506234414 1.2723450247 0
0.149160969546 1.2723450247 0
0.19801980198 1.2723450247 0
0.246153846154 1.2723450247 0
0.293398533007 1.2723450247 0
0.339599757429 1.2723450247 0
0.384615384615 1.2723450247 0
0.428316478287 1.2723450247 0
0.470588235294 1.2723450247 0
0.511330621732 1.2723450247 0
0.550458715596 1.2723450247 0
0.587902769927 1.2723450247 0
0.623608017817 1.2723450247 0
0.657534246575 1.2723450247 0
0.689655172414 1.2723450247 0
0.71995764955 1.2723450247 0
0.748440748441 1.2723450247 0
0.775114737379 1.2723450247 0
0.8 1.2723450247 0
0.823125918667 1.2723450247 0
0.84452975048 1.2723450247 0
0.864255519023 1.2723450247 0
0.882352941176 1.2723450247 0
0.898876404494 1.2723450247 0
0.91388400703 1.2723450247 0
0.927436668098 1.2723450247 0
0.939597315436 1.2723450247 0
0.950430151577 1.2723450247 0
0.96 1.2723450247 0
0.968371729793 1.2723450247 0
0.975609756098 1.2723450247 0
0.981777612495 1.2723450247 0
0.986937590711 1.2723450247 0
0.991150442478 1.2723450247 0
0.994475138122 1.2723450247 0
0.996968676322 1.2723450247 0
0.998685939553 1.2723450247 0
0.999679589875 1.2723450247 0
1 1.2723450247 2
0 1.41764368493 4
0.0499687695191 1.41764368493 0
0.0997506234414 1.41764368493 0
0.149160969546 1.41764368493 0
0.19801980198 1.41764368493 0
0.246153846154 1.41764368493 0
0.293398533007 1.41764368493 0
0.339599757429 1.41764368493 0
0.384615384615 1.41764368493 0
0.428316478287 1.41764368493 0
0.470588235294 1.41764368493 0
0.511330621732 1.41764368493 0
0.550458715596 1.41764368493 0
0.587902769927 1.41764368493 0
0.623608017817 1.41764368493 0
0.657534246575 1.41764368493 0
0.689655172414 1.41764368493 0
0.71995764955 1.41764368493 0
0.748440748441 1.41764368493 0
0.775114737379 1.41764368493 0
0.8 1.41764368493 0
0.823125918667 1.41764368493 0
0.84452975048 1.41764368493 0
0.864255519023 1.41764368493 0
0.882352941176 1.41764368493 0
0.898876404494 1.41764368493 0
0.91388400703 1.41764368493 0
0.927436668098 1.41764368493 0
0.939597315436 1.41764368493 0
0.950430151577 1.41764368493 0
0.96 1.41764368493 0
0.968371729793 1.41764368493 0
0.975609756098 1.41764368493 0
0.981777612495 1.41764368493 0
0.986937590711 1.41764368493 0
0.991150442478 1.41764368493 0
0.994475138122 1.41764368493 0
0.996968676322 1.41764368493 0
0.998685939553 1.41764368493 0
0.999679589875 1.41764368493 0
1 1.41764368493 2
0 1.57079632679 4
0.0499687695191 1.57079632679 3
0.0997506234414 1.57079632679 3
0.149160969546 1.57079632679 3
0.19801980198 1.57079632679 3
0.246153846154 1.57079632679 3
0.293398533007 1.57079632679 3
0.339599757429 1.57079632679 3
0.384615384615 1.57079632679 3
0.428316478287 1.57079632679 3
0.470588235294 1.57079632679 3
0.511330621732 1.57079632679 3
0.550458715596 1.57079632679 3
0.587902769927 1.57079632679 3
0.623608017817 1.57079632679 3
0.657534246575 1.57079632679 3
0.689655172414 1.57079632679 3
0.71995764955 1.57079632679 3
0.748440748441 1.57079632679 3
0.775114737379 1.57079632679 3
0.8 1.57079632679 3
0.823125918667 1.57079632679 3
0.84452975048 1.57079632679 3
0.864255519023 1.57079632679 3
0.882352941176 1.57079632679 3
0.898876404494 1.57079632679 3
0.91388400703 1.57079632679 3
0.927436668098 1.57079632679 3
0.939597315436 1.57079632679 3
0.950430151577 1.57079632679 3
0.96 1.57079632679 3
0.968371729793 1.57079632679 3
0.975609756098 1.57079632679 3
0.981777612495 1.57079632679 3
0.986937590711 1.57079632679 3
0.991150442478 1.57079632679 3
0.994475138122 1.57079632679 3
0.996968676322 1.57079632679 3
0.998685939553 1.57079632679 3
0.999679589875 1.57079632679 3
1 1.57079632679 3
1 2 43 0
1 43 42 0
2 3 44 0
2 44 43 0
3 4 45 0
3 45 44 0
4 5 46 0
4 46 45 0
5 6 47 0
5 47 46 0
6 7 48 0
6 48 47 0
7 8 49 0
7 49 48 0
8 9 50 0
8 50 49 0
9 10 51 0
9 51 50 0
10 11 52 0
10 52 51 0
11 12 53 0
11 53 52 0
12 13 54 0
12 54 53 0
13 14 55 0
13 55 54 0
14 15 56 0
14 56 55 0
15 16 57 0
15 57 56 0
16 17 58 0
16 58 57 0
17 18 59 0
17 59 58 0
18 19 60 0
18 60 59 0
19 20 61 0
19 61 60 0
20 21 62 0
20 62 61 0
21 22 63 0
21 63 62 0
22 23 64 0
22 64 63 0
23 24 65 0
23 65 64 0
24 25 66 0
24 66 65 0
25 26 67 0
25 67 66 0
26 27 68 0
26 68 67 0
27 28 69 0
27 69 68 0
28 29 70 0
28 70 69 0
29 30 71 0
29 71 70 0
30 31 72 0
30 72 71 0
31 32 73 0
31 73 72 0
32 33 74 0
32 74 73 0
33 34 75 0
33 75 74 0
34 35 76 0
34 76 75 0
35 36 77 0
35 77 76 0
36 37 78 0
36 78 77 0
37 38 79 0
37 79 78 0
38 39 80 0
38 80 79 0
39 40 81 0
39 81 80 0
40 41 82 0
40 82 81 0
42 43 84 0
42 84 83 0
43 44 85 0
43 85 84 0
44 45 86 0
44 86 85 0
45 46 87 0
45 87 86 0
46 47 88 0
46 88 87 0
47 48 89 0
47 89 88 0
48 49 90 0
48 90 89 0
49 50 91 0
49 91 90 0
50 51 92 0
50 92 91 0
51 52 93 0
51 93 92 0
52 53 94 0
52 94 93 0
53 54 95 0
53 95 94 0
54 55 96 0
54 96 95 0
55 56 97 0
55 97 96 0
56 57 98 0
56 98 97 0
57 58 99 0
57 99 98 0
58 59 100 0
58 100 99 0
59 60 101 0
59 101 100 0
60 61 102 0
60 102 101 0
61 62 103 0
61 103 102 0
62 63 104 0
62 104 103 0
63 64 105 0
63 105 104 0
64 65 106 0
64 106 105 0
65 66 107 0
65 107 106 0
66 67 108 0
66 108 107 0
67 68 109 0
67 109 108 0
68 69 110 0
68 110 109 0
69 70 111 0
69 111 110 0
70 71 112 0
70 112 111 0
71 72 113 0
71 113 112 0
72 73 114 0
72 114 113 0
73 74 115 0
73 115 114 0
74 75 116 0
74 116 115 0
75 76 117 0
75 117 116 0
76 77 118 0
76 118 117 0
77 78 119 0
77 119 118 0
78 79 120 0
78 120 119 0
79 80 121 0
79 121 120 0
80 81 122 0
80 122 121 0
81 82 123 0
81 123 122 0
83 84 125 0
83 125 124 0
84 85 126 0
84 126 125 0
85 86 127 0
85 127 126 0
86 87 128 0
86 128 127 0
87 88 129 0
87 129 128 0
88 89 130 0
88 130 129 0
89 90 131 0
89 131 130 0
90 91 132 0
90 132 131 0
91 92 133 0
91 133 132 0
92 93 134 0
92 134 133 0
93 94 135 0
93 135 134 0
94 95 136 0
94 136 135 0
95 96 137 0
95 137 136 0
96 97 138 0
96 138 137 0
97 98 139 0
97 139 138 0
98 99 140 0
98 140 139 0
99 100 141 0
99 141 140 0
100 101 142 0
100 142 141 0
101 102 143 0
101 143 142 0
102 103 144 0
102 144 143 0
103 104 145 0
103 145 144 0
104 105 146 0
104 146 145 0
105 106 147 0
105 147 146 0
106 107 148 0
106 148 147 0
107 108 149 0
107 149 148 0
108 109 150 0
108 150 149 0
109 110 151 0
109 151 150 0
110 111 152 0
110 152 151 0
111 112 153 0
111 153 152 0
112 113 154 0
112 154 153 0
113 114 155 0
113 155 154 0
114 115 156 0
114 156 155 0
115 116 157 0
115 157 156 0
116 117 158 0
116 158 157 0
117 118 159 0
117 159 158 0
118 119 160 0
118 160 159 0
119 120 161 0
119 161 160 0
120 121 162 0
120 162 161 0
121 122 163 0
121 163 162 0
122 123 164 0
122 164 163 0
124 125 166 0
124 166 165 0
125 126 167 0
125 167 166 0
126 127 168 0
126 168 167 0
127 128 169 0
127 169 168 0
128 129 170 0
128 170 169 0
129 130 171 0
129 171 170 0
130 131 172 0
130 172 171 0
131 132 173 0
131 173 172 0
132 133 174 0
132 174 173 0
133 134 175 0
133 175 174 0
134 135 176 0
134 176 175 0
135 136 177 0
135 177 176 0
136 137 178 0
136 178 177 0
137 138 179 0
137 179 178 0
138 139 180 0
138 180 179 0
139 140 181 0
139 181 180 0
140 141 182 0
140 182 181 0
141 142 183 0
141 183 182 0
142 143 184 0
142 184 183 0
143 144 185 0
143 185 184 0
144 145 186 0
144 186 185 0
145 146 187 0
145 187 186 0
146 147 188 0
146 188 187 0
147 148 189 0
147 189 188 0
148 149 190 0
148 190 189 0
149 150 191 0
149 191 190 0
150 151 192 0
150 192 191 0
151 152 193 0
151 193 192 0
152 153 194 0
152 194 193 0
153 154 195 0
153 195 194 0
154 155 196 0
154 196 195 0
155 156 197 0
155 197 196 0
156 157 198 0
156 198 197 0
157 158 199 0
157 199 198 0
158 159 200 0
158 200 199 0
159 160 201 0
159 201 200 0
160 161 202 0
160 202 201 0
161 162 203 0
161 203 202 0
162 163 204 0
162 204 203 0
163 164 205 0
163 205 204 0
165 166 207 0
165 207 206 0
166 167 208 0
166 208 207 0
167 168 209 0
167 209 208 0
168 169 210 0
168 210 209 0
169 170 211 0
169 211 210 0
170 171 212 0
170 212 211 0
171 172 213 0
171 213 212 0
172 173 214 0
172 214 213 0
173 174 215 0
173 215 214 0
174 175 216 0
174 216 215 0
175 176 217 0
175 217 216 0
176 177 218 0
176 218 217 0
177 178 219 0
177 219 218 0
178 179 220 0
178 220 219 0
179 180 221 0
179 221 220 0
180 181 222 0
180 222 221 0
181 182 223 0
181 223 222 0
182 183 224 0
182 224 223 0
183 184 225 0
183 225 224 0
184 185 226 0
184 226 225 0
185 186 227 0
185 227 226 0
186 187 228 0
186 228 227 0
187 188 229 0
187 229 228 0
188 189 230 0
188 230 229 0
189 190 231 0
189 231 230 0
190 191 232 0
190 232 231 0
191 192 233 0
191 233 232 0
192 193 234 0
192 234 233 0
193 194 235 0
193 235 234 0
194 195 236 0
194 236 235 0
195 196 237 0
195 237 236 0
196 197 238 0
196 238 237 0
197 198 239 0
197 239 238 0
198 199 240 0
198 240 239 0
199 200 241 0
199 241 240 0
200 201 242 0
200 242 241 0
201 202 243 0
201 243 242 0
202 203 244 0
202 244 243 0
203 204 245 0
203 245 244 0
204 205 246 0
204 246 245 0
206 207 248 0
206 248 247 0
207 208 249 0
207 249 248 0
208 209 250 0
208 250 249 0
209 210 251 0
209 251 250 0
210 211 252 0
210 252 251 0
211 212 253 0
211 253 252 0
212 213 254 0
212 254 253 0
213 214 255 0
213 255 254 0
214 215 256 0
214 256 255 0
215 216 257 0
215 257 256 0
216 217 258 0
216 258 257 0
217 218 259 0
217 259 258 0
218 219 260 0
218 260 259 0
219 220 261 0
219 261 260 0
220 221 262 0
220 262 261 0
221 222 263 0
221 263 262 0
222 223 264 0
222 264 263 0
223 224 265 0
223 265 264 0
224 225 266 0
224 266 265 0
225 226 267 0
225 267 266 0
226 227 268 0
226 268 267 0
227 228 269 0
227 269 268 0
228 229 270 0
228 270 269 0
229 230 271 0
229 271 270 0
230 231 272 0
230 272 271 0
231 232 273 0
231 273 272 0
232 233 274 0
232 274 273 0
233 234 275 0
233 275 274 0
234 235 276 0
234 276 275 0
235 236 277 0
235 277 276 0
236 237 278 0
236 278 277 0
237 238 279 0
237 279 278 0
238 239 280 0
238 280 279 0
239 240 281 0
239 281 280 0
240 241 282 0
240 282 281 0
241 242 283 0
241 283 282 0
242 243 284 0
242 284 283 0
243 244 285 0
243 285 284 0
244 245 286 0
244 286 285 0
245 246 287 0
245 287 286 0
247 248 289 0
247 289 288 0
248 249 290 0
248 290 289 0
249 250 291 0
249 291 290 0
250 251 292 0
250 292 291 0
251 252 293 0
251 293 292 0
252 253 294 0
252 294 293 0
253 254 295 0
253 295 294 0
254 255 296 0
254 296 295 0
255 256 297 0
255 297 296 0
256 257 298 0
256 298 297 0
257 258 299 0
257 299 298 0
258 259 300 0
258 300 299 0
259 260 301 0
259 301 300 0
260 261 302 0
260 302 301 0
261 262 303 0
261 303 302 0
262 263 304 0
262 304 303 0
263 264 305 0
263 305 304 0
264 265 306 0
264 306 305 0
265 266 307 0
265 307 306 0
266 267 308 0
266 308 307 0
267 268 309 0
267 309 308 0
268 269 310 0
268 310 309 0
269 270 311 0
269 311 310 0
270 271 312 0
270 312 311 0
271 272 313 0
271 313 312 0
272 273 314 0
272 314 313 0
273 274 315 0
273 315 314 0
274 275 316 0
274 316 315 0
275 276 317 0
275 317 316 0
276 277 318 0
276 318 317 0
277 278 319 0
277 319 318 0
278 279 320 0
278 320 319 0
279 280 321 0
279 321 320 0
280 281 322 0
280 322 321 0
281 282 323 0
281 323 322 0
282 283 324 0
282 324 323 0
283 284 325 0
283 325 324 0
284 285 326 0
284 326 325 0
285 286 327 0
285 327 326 0
286 287 328 0
286 328 327 0
288 289 330 0
288 330 329 0
289 290 331 0
289 331 330 0
290 291 332 0
290 332 331 0
291 292 333 0
291 333 332 0
292 293 334 0
292 334 333 0
293 294 335 0
293 335 334 0
294 295 336 0
294 336 335 0
295 296 337 0
295 337 336 0
296 297 338 0
296 338 337 0
297 298 339 0
297 339 338 0
298 299 340 0
298 340 339 0
299 300 341 0
299 341 340 0
300 301 342 0
300 342 341 0
301 302 343 0
301 343 342 0
302 303 344 0
302 344 343 0
303 304 345 0
303 345 344 0
304 305 346 0
304 346 345 0
305 306 347 0
305 347 346 0
306 307 348 0
306 348 347 0
307 308 349 0
307 349 348 0
308 309 350 0
308 350 349 0
309 310 351 0
309 351 350 0
310 311 352 0
310 352 351 0
311 312 353 0
311 353 352 0
312 313 354 0
312 354 353 0
313 314 355 0
313 355 354 0
314 315 356 0
314 356 355 0
315 316 357 0
315 357 356 0
316 317 358 0
316 358 357 0
317 318 359 0
317 359 358 0
318 319 360 0
318 360 359 0
319 320 361 0
319 361 360 0
320 321 362 0
320 362 361 0
321 322 363 0
321 363 362 0
322 323 364 0
322 364 363 0
323 324 365 0
323 365 364 0
324 325 366 0
324 366 365 0
325 326 367 0
325 367 366 0
326 327 368 0
326 368 367 0
327 328 369 0
327 369 368 0
329 330 371 0
329 371 370 0
330 331 372 0
330 372 371 0
331 332 373 0
331 373 372 0
332 333 374 0
332 374 373 0
333 334 375 0
333 375 374 0
334 335 376 0
334 376 375 0
335 336 377 0
335 377 376 0
336 337 378 0
336 378 377 0
337 338 379 0
337 379 378 0
338 339 380 0
338 380 379 0
339 340 381 0
339 381 380 0
340 341 382 0
340 382 381 0
341 342 383 0
341 383 382 0
342 343 384 0
342 384 383 0
343 344 385 0
343 385 384 0
344 345 386 0
344 386 385 0
345 346 387 0
345 387 386 0
346 347 388 0
346 388 387 0
347 348 389 0
347 389 388 0
348 349 390 0
348 390 389 0
349 350 391 0
349 391 390 0
350 351 392 0
350 392 391 0
351 352 393 0
351 393 392 0
352 353 394 0
352 394 393 0
353 354 395 0
353 395 394 0
354 355 396 0
354 396 395 0
355 356 397 0
355 397 396 0
356 357 398 0
356 398 397 0
357 358 399 0
357 399 398 0
358 359 400 0
358 400 399 0
359 360 401 0
359 401 400 0
360 361 402 0
360 402 401 0
361 362 403 0
361 403 402 0
362 363 404 0
362 404 403 0
363 364 405 0
363 405 404 0
364 365 406 0
364 406 405 0
365 366 407 0
365 407 406 0
366 367 408 0
366 408 407 0
367 368 409 0
367 409 408 0
368 369 410 0
368 410 409 0
370 371 412 0
370 412 411 0
371 372 413 0
371 413 412 0
372 373 414 0
372 414 413 0
373 374 415 0
373 415 414 0
374 375 416 0
374 416 415 0
375 376 417 0
375 417 416 0
376 377 418 0
376 418 417 0
377 378 419 0
377 419 418 0
378 379 420 0
378 420 419 0
379 380 421 0
379 421 420 0
380 381 422 0
380 422 421 0
381 382 423 0
381 423 422 0
382 383 424 0
382 424 423 0
383 384 425 0
383 425 424 0
384 385 426 0
384 426 425 0
385 386 427 0
385 427 426 0
386 387 428 0
386 428 427 0
387 388 429 0
387 429 428 0
388 389 430 0
388 430 429 0
389 390 431 0
389 431 430 0
390 391 432 0
390 432 431 0
391 392 433 0
391 433 432 0
392 393 434 0
392 434 433 0
393 394 435 0
393 435 434 0
394 395 436 0
394 436 435 0
395 396 437 0
395 437 436 0
396 397 438 0
396 438 437 0
397 398 439 0
397 439 438 0
398 399 440 0
398 440 439 0
399 400 441 0
399 441 440 0
400 401 442 0
400 442 441 0
401 402 443 0
401 443 442 0
402 403 444 0
402 444 443 0
403 404 445 0
403 445 444 0
404 405 446 0
404 446 445 0
405 406 447 0
405 447 446 0
406 407 448 0
406 448 447 0
407 408 449 0
407 449 448 0
408 409 450 0
408 450 449 0
409 410 451 0
409 451 450 0
411 412 453 0
411 453 452 0
412 413 454 0
412 454 453 0
413 414 455 0
413 455 454 0
414 415 456 0
414 456 455 0
415 416 457 0
415 457 456 0
416 417 458 0
416 458 457 0
417 418 459 0
417 459 458 0
418 419 460 0
418 460 459 0
419 420 461 0
419 461 460 0
420 421 462 0
420 462 461 0
421 422 463 0
421 463 462 0
422 423 464 0
422 464 463 0
423 424 465 0
423 465 464 0
424 425 466 0
424 466 465 0
425 426 467 0
425 467 466 0
426 427 468 0
426 468 467 0
427 428 469 0
427 469 468 0
428 429 470 0
428 470 469 0
429 430 471 0
429 471 470 0
430 431 472 0
430 472 471 0
431 432 473 0
431 473 472 0
432 433 474 0
432 474 473 0
433 434 475 0
433 475 474 0
434 435 476 0
434 476 475 0
435 436 477 0
435 477 476 0
436 437 478 0
436 478 477 0
437 438 479 0
437 479 478 0
438 439 480 0
438 480 479 0
439 440 481 0
439 481 480 0
440 441 482 0
440 482 481 0
441 442 483 0
441 483 482 0
442 443 484 0
442 484 483 0
443 444 485 0
443 485 484 0
444 445 486 0
444 486 485 0
445 446 487 0
445 487 486 0
446 447 488 0
446 488 487 0
447 448 489 0
447 489 488 0
448 449 490 0
448 490 489 0
449 450 491 0
449 491 490 0
450 451 492 0
450 492 491 0
452 453 494 0
452 494 493 0
453 454 495 0
453 495 494 0
454 455 496 0
454 496 495 0
455 456 497 0
455 497 496 0
456 457 498 0
456 498 497 0
457 458 499 0
457 499 498 0
458 459 500 0
458 500 499 0
459 460 501 0
459 501 500 0
460 461 502 0
460 502 501 0
461 462 503 0
461 503 502 0
462 463 504 0
462 504 503 0
463 464 505 0
463 505 504 0
464 465 506 0
464 506 505 0
465 466 507 0
465 507 506 0
466 467 508 0
466 508 507 0
467 468 509 0
467 509 508 0
468 469 510 0
468 510 509 0
469 470 511 0
469 511 510 0
470 471 512 0
470 512 511 0
471 472 513 0
471 513 512 0
472 473 514 0
472 514 513 0
473 474 515 0
473 515 514 0
474 475 516 0
474 516 515 0
475 476 517 0
475 517 516 0
476 477 518 0
476 518 517 0
477 478 519 0
477 519 518 0
478 479 520 0
478 520 519 0
479 480 521 0
479 521 520 0
480 481 522 0
480 522 521 0
481 482 523 0
481 523 522 0
482 483 524 0
482 524 523 0
483 484 525 0
483 525 524 0
484 485 526 0
484 526 525 0
485 486 527 0
485 527 526 0
486 487 528 0
486 528 527 0
487 488 529 0
487 529 528 0
488 489 530 0
488 530 529 0
489 490 531 0
489 531 530 0
490 491 532 0
490 532 531 0
491 492 533 0
491 533 532 0
493 494 535 0
493 535 534 0
494 495 536 0
494 536 535 0
495 496 537 0
495 537 536 0
496 497 538 0
496 538 537 0
497 498 539 0
497 539 538 0
498 499 540 0
498 540 539 0
499 500 541 0
499 541 540 0
500 501 542 0
500 542 541 0
501 502 543 0
501 543 542 0
502 503 544 0
502 544 543 0
503 504 545 0
503 545 544 0
504 505 546 0
504 546 545 0
505 506 547 0
505 547 546 0
506 507 548 0
506 548 547 0
507 508 549 0
507 549 548 0
508 509 550 0
508 550 549 0
509 510 551 0
509 551 550 0
510 511 552 0
510 552 551 0
511 512 553 0
511 553 552 0
512 513 554 0
512 554 553 0
513 514 555 0
513 555 554 0
514 515 556 0
514 556 555 0
515 516 557 0
515 557 556 0
516 517 558 0
516 558 557 0
517 518 559 0
517 559 558 0
518 519 560 0
518 560 559 0
519 520 561 0
519 561 560 0
520 521 562 0
520 562 561 0
521 522 563 0
521 563 562 0
522 523 564 0
522 564 563 0
523 524 565 0
523 565 564 0
524 525 566 0
524 566 565 0
525 526 567 0
525 567 566 0
526 527 568 0
526 568 567 0
527 528 569 0
527 569 568 0
528 529 570 0
528 570 569 0
529 530 571 0
529 571 570 0
530 531 572 0
530 572 571 0
531 532 573 0
531 573 572 0
532 533 574 0
532 574 573 0
534 535 576 0
534 576 575 0
535 536 577 0
535 577 576 0
536 537 578 0
536 578 577 0
537 538 579 0
537 579 578 0
538 539 580 0
538 580 579 0
539 540 581 0
539 581 580 0
540 541 582 0
540 582 581 0
541 542 583 0
541 583 582 0
542 543 584 0
542 584 583 0
543 544 585 0
543 585 584 0
544 545 586 0
544 586 585 0
545 546 587 0
545 587 586 0
546 547 588 0
546 588 587 0
547 548 589 0
547 589 588 0
548 549 590 0
548 590 589 0
549 550 591 0
549 591 590 0
550 551 592 0
550 592 591 0
551 552 593 0
551 593 592 0
552 553 594 0
552 594 593 0
553 554 595 0
553 595 594 0
554 555 596 0
554 596 595 0
555 556 597 0
555 597 596 0
556 557 598 0
556 598 597 0
557 558 599 0
557 599 598 0
558 559 600 0
558 600 599 0
559 560 601 0
559 601 600 0
560 561 602 0
560 602 601 0
561 562 603 0
561 603 602 0
562 563 604 0
562 604 603 0
563 564 605 0
563 605 604 0
564 565 606 0
564 606 605 0
565 566 607 0
565 607 606 0
566 567 608 0
566 608 607 0
567 568 609 0
567 609 608 0
568 569 610 0
568 610 609 0
569 570 611 0
569 611 610 0
570 571 612 0
570 612 611 0
571 572 613 0
571 613 612 0
572 573 614 0
572 614 613 0
573 574 615 0
573 615 614 0
575 576 617 0
575 617 616 0
576 577 618 0
576 618 617 0
577 578 619 0
577 619 618 0
578 579 620 0
578 620 619 0
579 580 621 0
579 621 620 0
580 581 622 0
580 622 621 0
581 582 623 0
581 623 622 0
582 583 624 0
582 624 623 0
583 584 625 0
583 625 624 0
584 585 626 0
584 626 625 0
585 586 627 0
585 627 626 0
586 587 628 0
586 628 627 0
587 588 629 0
587 629 628 0
588 589 630 0
588 630 629 0
589 590 631 0
589 631 630 0
590 591 632 0
590 632 631 0
591 592 633 0
591 633 632 0
592 593 634 0
592 634 633 0
593 594 635 0
593 635 634 0
594 595 636 0
594 636 635 0
595 596 637 0
595 637 636 0
596 597 638 0
596 638 637 0
597 598 639 0
597 639 638 0
598 599 640 0
598 640 639 0
599 600 641 0
599 641 640 0
600 601 642 0
600 642 641 0
601 602 643 0
601 643 642 0
602 603 644 0
602 644 643 0
603 604 645 0
603 645 644 0
604 605 646 0
604 646 645 0
605 606 647 0
605 647 646 0
606 607 648 0
606 648 647 0
607 608 649 0
607 649 648 0
608 609 650 0
608 650 649 0
609 610 651 0
609 651 650 0
610 611 652 0
610 652 651 0
611 612 653 0
611 653 652 0
612 613 654 0
612 654 653 0
613 614 655 0
613 655 654 0
614 615 656 0
614 656 655 0
616 617 658 0
616 658 657 0
617 618 659 0
617 659 658 0
618 619 660 0
618 660 659 0
619 620 661 0
619 661 660 0
620 621 662 0
620 662 661 0
621 622 663 0
621 663 662 0
622 623 664 0
622 664 663 0
623 624 665 0
623 665 664 0
624 625 666 0
624 666 665 0
625 626 667 0
625 667 666 0
626 627 668 0
626 668 667 0
627 628 669 0
627 669 668 0
628 629 670 0
628 670 669 0
629 630 671 0
629 671 670 0
630 631 672 0
630 672 671 0
631 632 673 0
631 673 672 0
632 633 674 0
632 674 673 0
633 634 675 0
633 675 674 0
634 635 676 0
634 676 675 0
635 636 677 0
635 677 676 0
636 637 678 0
636 678 677 0
637 638 679 0
637 679 678 0
638 639 680 0
638 680 679 0
639 640 681 0
639 681 680 0
640 641 682 0
640 682 681 0
641 642 683 0
641 683 682 0
642 643 684 0
642 684 683 0
643 644 685 0
643 685 684 0
644 645 686 0
644 686 685 0
645 646 687 0
645 687 686 0
646 647 688 0
646 688 687 0
647 648 689 0
647 689 688 0
648 649 690 0
648 690 689 0
649 650 691 0
649 691 690 0
650 651 692 0
650 692 691 0
651 652 693 0
651 693 692 0
652 653 694 0
652 694 693 0
653 654 695 0
653 695 694 0
654 655 696 0
654 696 695 0
655 656 697 0
655 697 696 0
657 658 699 0
657 699 698 0
658 659 700 0
658 700 699 0
659 660 701 0
659 701 700 0
660 661 702 0
660 702 701 0
661 662 703 0
661 703 702 0
662 663 704 0
662 704 703 0
663 664 705 0
663 705 704 0
664 665 706 0
664 706 705 0
665 666 707 0
665 707 706 0
666 667 708 0
666 708 707 0
667 668 709 0
667 709 708 0
668 669 710 0
668 710 709 0
669 670 711 0
669 711 710 0
670 671 712 0
670 712 711 0
671 672 713 0
671 713 712 0
672 673 714 0
672 714 713 0
673 674 715 0
673 715 714 0
674 675 716 0
674 716 715 0
675 676 717 0
675 717 716 0
676 677 718 0
676 718 717 0
677 678 719 0
677 719 718 0
678 679 720 0
678 720 719 0
679 680 721 0
679 721 720 0
680 681 722 0
680 722 721 0
681 682 723 0
681 723 722 0
682 683 724 0
682 724 723 0
683 684 725 0
683 725 724 0
684 685 726 0
684 726 725 0
685 686 727 0
685 727 726 0
686 687 728 0
686 728 727 0
687 688 729 0
687 729 728 0
688 689 730 0
688 730 729 0
689 690 731 0
689 731 730 0
690 691 732 0
690 732 731 0
691 692 733 0
691 733 732 0
692 693 734 0
692 734 733 0
693 694 735 0
693 735 734 0
694 695 736 0
694 736 735 0
695 696 737 0
695 737 736 0
696 697 738 0
696 738 737 0
698 699 740 0
698 740 739 0
699 700 741 0
699 741 740 0
700 701 742 0
700 742 741 0
701 702 743 0
701 743 742 0
702 703 744 0
702 744 743 0
703 704 745 0
703 745 744 0
704 705 746 0
704 746 745 0
705 706 747 0
705 747 746 0
706 707 748 0
706 748 747 0
707 708 749 0
707 749 748 0
708 709 750 0
708 750 749 0
709 710 751 0
709 751 750 0
710 711 752 0
710 752 751 0
711 712 753 0
711 753 752 0
712 713 754 0
712 754 753 0
713 714 755 0
713 755 754 0
714 715 756 0
714 756 755 0
715 716 757 0
715 757 756 0
716 717 758 0
716 758 757 0
717 718 759 0
717 759 758 0
718 719 760 0
718 760 759 0
719 720 761 0
719 761 760 0
720 721 762 0
720 762 761 0
721 722 763 0
721 763 762 0
722 723 764 0
722 764 763 0
723 724 765 0
723 765 764 0
724 725 766 0
724 766 765 0
725 726 767 0
725 767 766 0
726 727 768 0
726 768 767 0
727 728 769 0
727 769 768 0
728 729 770 0
728 770 769 0
729 730 771 0
729 771 770 0
730 731 772 0
730 772 771 0
731 732 773 0
731 773 772 0
732 733 774 0
732 774 773 0
733 734 775 0
733 775 774 0
734 735 776 0
734 776 775 0
735 736 777 0
735 777 776 0
736 737 778 0
736 778 777 0
737 738 779 0
737 779 778 0
739 740 781 0
739 781 780 0
740 741 782 0
740 782 781 0
741 742 783 0
741 783 782 0
742 743 784 0
742 784 783 0
743 744 785 0
743 785 784 0
744 745 786 0
744 786 785 0
745 746 787 0
745 787 786 0
746 747 788 0
746 788 787 0
747 748 789 0
747 789 788 0
748 749 790 0
748 790 789 0
749 750 791 0
749 791 790 0
750 751 792 0
750 792 791 0
751 752 793 0
751 793 792 0
752 753 794 0
752 794 793 0
753 754 795 0
753 795 794 0
754 755 796 0
754 796 795 0
755 756 797 0
755 797 796 0
756 757 798 0
756 798 797 0
757 758 799 0
757 799 798 0
758 759 800 0
758 800 799 0
759 760 801 0
759 801 800 0
760 761 802 0
760 802 801 0
761 762 803 0
761 803 802 0
762 763 804 0
762 804 803 0
763 764 805 0
763 805 804 0
764 765 806 0
764 806 805 0
765 766 807 0
765 807 806 0
766 767 808 0
766 808 807 0
767 768 809 0
767 809 808 0
768 769 810 0
768 810 809 0
769 770 811 0
769 811 810 0
770 771 812 0
770 812 811 0
771 772 813 0
771 813 812 0
772 773 814 0
772 814 813 0
773 774 815 0
773 815 814 0
774 775 816 0
774 816 815 0
775 776 817 0
775 817 816 0
776 777 818 0
776 818 817 0
777 778 819 0
777 819 818 0
778 779 820 0
778 820 819 0
780 781 822 0
780 822 821 0
781 782 823 0
781 823 822 0
782 783 824 0
782 824 823 0
783 784 825 0
783 825 824 0
784 785 826 0
784 826 825 0
785 786 827 0
785 827 826 0
786 787 828 0
786 828 827 0
787 788 829 0
787 829 828 0
788 789 830 0
788 830 829 0
789 790 831 0
789 831 830 0
790 791 832 0
790 832 831 0
791 792 833 0
791 833 832 0
792 793 834 0
792 834 833 0
793 794 835 0
793 835 834 0
794 795 836 0
794 836 835 0
795 796 837 0
795 837 836 0
796 797 838 0
796 838 837 0
797 798 839 0
797 839 838 0
798 799 840 0
798 840 839 0
799 800 841 0
799 841 840 0
800 801 842 0
800 842 841 0
801 802 843 0
801 843 842 0
802 803 844 0
802 844 843 0
803 804 845 0
803 845 844 0
804 805 846 0
804 846 845 0
805 806 847 0
805 847 846 0
806 807 848 0
806 848 847 0
807 808 849 0
807 849 848 0
808 809 850 0
808 850 849 0
809 810 851 0
809 851 850 0
810 811 852 0
810 852 851 0
811 812 853 0
811 853 852 0
812 813 854 0
812 854 853 0
813 814 855 0
813 855 854 0
814 815 856 0
814 856 855 0
815 816 857 0
815 857 856 0
816 817 858 0
816 858 857 0
817 818 859 0
817 859 858 0
818 819 860 0
818 860 859 0
819 820 861 0
819 861 860 0
1 2 1
2 3 1
3 4 1
4 5 1
5 6 1
6 7 1
7 8 1
8 9 1
9 10 1
10 11 1
11 12 1
12 13 1
13 14 1
14 15 1
15 16 1
16 17 1
17 18 1
18 19 1
19 20 1
20 21 1
21 22 1
22 23 1
23 24 1
24 25 1
25 26 1
26 27 1
27 28 1
28 29 1
29 30 1
30 31 1
31 32 1
32 33 1
33 34 1
34 35 1
35 36 1
36 37 1
37 38 1
38 39 1
39 40 1
40 41 1
41 82 2
82 123 2
123 164 2
164 205 2
205 246 2
246 287 2
287 328 2
328 369 2
369 410 2
410 451 2
451 492 2
492 533 2
533 574 2
574 615 2
615 656 2
656 697 2
697 738 2
738 779 2
779 820 2
820 861 2
822 821 3
823 822 3
824 823 3
825 824 3
826 825 3
827 826 3
828 827 3
829 828 3
830 829 3
831 830 3
832 831 3
833 832 3
834 833 3
835 834 3
836 835 3
837 836 3
838 837 3
839 838 3
840 839 3
841 840 3
842 841 3
843 842 3
844 843 3
845 844 3
846 845 3
847 846 3
848 847 3
849 848 3
850 849 3
851 850 3
852 851 3
853 852 3
854 853 3
855 854 3
856 855 3
857 856 3
858 857 3
859 858 3
860 859 3
861 860 3
42 1 4
83 42 4
124 83 4
165 124 4
206 165 4
247 206 4
288 247 4
329 288 4
370 329 4
411 370 4
452 411 4
493 452 4
534 493 4
575 534 4
616 575 4
657 616 4
698 657 4
739 698 4
780 739 4
821 780 4
